<svg xmlns="http://www.w3.org/2000/svg" width="48" height="48" viewBox="0 0 48 48" version="1.1">
    <defs>
        <style id="current-color-scheme" type="text/css">
            .ColorScheme-Text { color:#dfdfdf; } .ColorScheme-Highlight { color:#4285f4; } .ColorScheme-NeutralText { color:#ff9800; } .ColorScheme-PositiveText { color:#4caf50; } .ColorScheme-NegativeText { color:#f44336; }
        </style>
    </defs>
    <path style="fill:currentColor" class="ColorScheme-Text"
        d="M 19.018703,9.3973259 22.992042,21.694238 11.930026,21.551403 8.9263501,17.173243 C 8.6363671,16.670342 8.5504279,16.630228 8.0901277,16.630179 H 7.4749746 c 0,0 -0.6151529,0.0038 -0.6151529,1.057294 l 0.6920469,6.324542 -0.6920469,6.300512 c 0,1.053703 0.6920469,1.081322 0.6920469,1.081322 h 0.5382591 c 0.440597,0 0.5456773,-0.03796 0.8362225,-0.543064 l 3.0036758,-4.378159 h 11.072755 l -3.984078,12.230971 c -0.526723,2.526306 -0.363167,2.5327 1.302394,2.5327 0.89954,0 1.019025,-0.173552 1.773373,-1.230308 l 9.018481,-13.495138 7.988604,-0.03823 c 1.153588,-0.0055 2.082314,-1.074051 2.082314,-2.408184 0,-1.334138 -0.928713,-2.408189 -2.082314,-2.408189 L 31.14875,21.551403 22.09447,8.0180375 C 21.300366,6.9264813 21.097695,6.7877317 20.321097,6.7877317 c -1.769012,0 -1.816329,0.1505961 -1.302394,2.6095942 z" />
</svg>
