<svg xmlns="http://www.w3.org/2000/svg" width="48" height="48" viewBox="0 0 48 48" version="1.1">
    <defs>
        <style id="current-color-scheme" type="text/css">
            .ColorScheme-Text { color:#dfdfdf; } .ColorScheme-Highlight { color:#4285f4; } .ColorScheme-NeutralText { color:#ff9800; } .ColorScheme-PositiveText { color:#4caf50; } .ColorScheme-NegativeText { color:#f44336; }
        </style>
    </defs>
    <path style="opacity:0.35;fill:currentColor" class="ColorScheme-Text"
        d="M 10.084569,6.6147209 6.6147217,10.084568 18.081556,21.551403 h -6.15153 L 8.9263501,17.173243 C 8.5818654,16.656515 8.6068554,16.630179 8.0901277,16.630179 H 7.4749746 c -0.9596388,0 -0.6151529,1.057294 -0.6151529,1.057294 l 0.6920469,6.324542 -0.6920469,6.300512 c 0,0 -0.3660161,1.081322 0.6920469,1.081322 h 0.5382591 c 0.5413347,0 0.4917379,-0.02634 0.8362225,-0.543064 l 3.0036758,-4.378159 h 11.072755 l -3.984078,12.230971 c -0.615153,2.436004 -0.666095,2.5327 1.302394,2.5327 h 0.148982 c 0.910426,0 0.960023,-0.12304 1.624391,-1.230308 l 5.791088,-8.650586 10.029874,10.029876 3.469846,-3.469846 z m 10.236528,0.1730108 c -1.968489,0 -1.96676,0.025951 -1.302394,2.6095942 l 0.591123,1.8454581 15.229843,15.229841 h 3.936015 c 1.353337,0 2.460614,-1.107275 2.460614,-2.46061 0,-1.377942 -1.107277,-2.460612 -2.460614,-2.460612 H 31.14875 L 22.09447,8.0180375 C 21.380891,6.8123385 21.379162,6.7877325 20.321097,6.7877317 Z" />
</svg>
