<svg xmlns="http://www.w3.org/2000/svg" width="48" height="48" viewBox="0 0 48 48" version="1.1">
 <defs>
  <style id="current-color-scheme" type="text/css">
   .ColorScheme-Text { color:#dfdfdf; } .ColorScheme-Highlight { color:#4285f4; } .ColorScheme-NeutralText { color:#ff9800; } .ColorScheme-PositiveText { color:#4caf50; } .ColorScheme-NegativeText { color:#f44336; }
  </style>
 </defs>
 <path style="fill:currentColor" class="ColorScheme-Text"
   d="m 22.746378,6.5555501 c -0.272399,0.021294 -0.538372,0.086932 -0.784091,0.2064196 -0.754897,0.3632989 -1.235141,1.1267221 -1.235795,1.9644895 v 8.8721578 l -5.207387,-4.048294 c -0.951027,-0.738199 -2.320256,-0.566569 -3.059659,0.383522 -0.738199,0.951027 -0.566568,2.320257 0.383523,3.05966 l 7.883523,6.132102 v 1.747159 l -7.883523,6.132102 c -0.95009,0.739403 -1.12172,2.108632 -0.383523,3.059658 0.739403,0.95009 2.108633,1.12172 3.059659,0.383522 l 5.207387,-4.048294 v 8.872159 c -7.64e-4,1.830259 2.11647,2.84816 3.545454,1.704545 l 10.909091,-8.727273 c 1.100847,-0.881873 1.088319,-2.560789 -0.02557,-3.426135 l -6.200283,-4.823865 6.200284,-4.823862 c 1.113888,-0.865346 1.126419,-2.544264 0.02557,-3.426137 L 24.271948,7.0219137 c -0.43047,-0.344808 -0.975543,-0.5071632 -1.52557,-0.4663636 z m 2.34375,6.7135219 5.203126,4.163354 -4.892047,3.805396 -0.311079,-0.242897 z m -13.090909,8.553527 c -1.204985,0 -2.1818181,0.976833 -2.1818181,2.181818 0,1.204986 0.9768331,2.181819 2.1818181,2.181819 1.204985,0 2.181818,-0.976833 2.181818,-2.181819 0,-1.204985 -0.976833,-2.181818 -2.181818,-2.181818 z m 26.181818,0 c -1.204985,0 -2.181818,0.976833 -2.181818,2.181818 0,1.204986 0.976833,2.181819 2.181818,2.181819 1.204986,0 2.181818,-0.976833 2.181818,-2.181819 0,-1.204985 -0.976832,-2.181818 -2.181818,-2.181818 z m -12.77983,4.93795 4.892047,3.805399 -5.203126,4.163352 v -7.725854 z" />
</svg>
