<?xml version="1.0" encoding="UTF-8" standalone="no"?>
<svg
   width="48"
   height="48"
   viewBox="0 0 48 48"
   version="1.1"
   id="svg1"
   xml:space="preserve"
   xmlns="http://www.w3.org/2000/svg"
   xmlns:svg="http://www.w3.org/2000/svg"><defs
     id="defs1"><style
       id="current-color-scheme"
       type="text/css">
   .ColorScheme-Text { color:#dfdfdf; } .ColorScheme-Highlight { color:#4285f4; } .ColorScheme-NeutralText { color:#ff9800; } .ColorScheme-PositiveText { color:#4caf50; } .ColorScheme-NegativeText { color:#f44336; }
  </style><style
       id="current-color-scheme-5"
       type="text/css">
   .ColorScheme-Text { color:#dfdfdf; } .ColorScheme-Highlight { color:#4285f4; } .ColorScheme-NeutralText { color:#ff9800; } .ColorScheme-PositiveText { color:#4caf50; } .ColorScheme-NegativeText { color:#f44336; }
  </style><style
       id="current-color-scheme-7"
       type="text/css">
   .ColorScheme-Text { color:#dfdfdf; } .ColorScheme-Highlight { color:#4285f4; } .ColorScheme-NeutralText { color:#ff9800; } .ColorScheme-PositiveText { color:#4caf50; } .ColorScheme-NegativeText { color:#f44336; }
  </style><style
       id="current-color-scheme-6"
       type="text/css">
   .ColorScheme-Text { color:#dfdfdf; } .ColorScheme-Highlight { color:#4285f4; } .ColorScheme-NeutralText { color:#ff9800; } .ColorScheme-PositiveText { color:#4caf50; } .ColorScheme-NegativeText { color:#f44336; }
  </style><style
       id="current-color-scheme-61"
       type="text/css">
   .ColorScheme-Text { color:#dfdfdf; } .ColorScheme-Highlight { color:#4285f4; } .ColorScheme-NeutralText { color:#ff9800; } .ColorScheme-PositiveText { color:#4caf50; } .ColorScheme-NegativeText { color:#f44336; }
  </style><style
       id="current-color-scheme-2"
       type="text/css">
   .ColorScheme-Text { color:#dfdfdf; } .ColorScheme-Highlight { color:#4285f4; } .ColorScheme-NeutralText { color:#ff9800; } .ColorScheme-PositiveText { color:#4caf50; } .ColorScheme-NegativeText { color:#f44336; }
  </style><style
       id="current-color-scheme-75"
       type="text/css">
   .ColorScheme-Text { color:#dfdfdf; } .ColorScheme-Highlight { color:#4285f4; } .ColorScheme-NeutralText { color:#ff9800; } .ColorScheme-PositiveText { color:#4caf50; } .ColorScheme-NegativeText { color:#f44336; }
  </style><style
       id="current-color-scheme-8"
       type="text/css">
   .ColorScheme-Text { color:#dfdfdf; } .ColorScheme-Highlight { color:#4285f4; } .ColorScheme-NeutralText { color:#ff9800; } .ColorScheme-PositiveText { color:#4caf50; } .ColorScheme-NegativeText { color:#f44336; }
  </style><style
       id="current-color-scheme-73"
       type="text/css">
   .ColorScheme-Text { color:#dfdfdf; } .ColorScheme-Highlight { color:#4285f4; } .ColorScheme-NeutralText { color:#ff9800; } .ColorScheme-PositiveText { color:#4caf50; } .ColorScheme-NegativeText { color:#f44336; }
  </style></defs><g
     id="g1"
     transform="matrix(2.1818182,0,0,2.1818182,-0.0899222,-0.16162755)"><path
       style="fill:#ffffff;fill-opacity:1"
       class="ColorScheme-Text"
       d="M 8.011202,11.074079 A 2.0200082,2.054324 0 0 1 5.9911938,13.128403 2.0200082,2.054324 0 0 1 3.9711856,11.074079 2.0200082,2.054324 0 0 1 5.9911938,9.0197554 2.0200082,2.054324 0 0 1 8.011202,11.074079 Z"
       id="path1" /><path
       style="fill:#ffffff;fill-opacity:1"
       class="ColorScheme-Text"
       d="M 13.061223,11.074079 A 2.0200082,2.054324 0 0 1 11.041214,13.128403 2.0200082,2.054324 0 0 1 9.0212061,11.074079 2.0200082,2.054324 0 0 1 11.041214,9.0197554 2.0200082,2.054324 0 0 1 13.061223,11.074079 Z"
       id="path2" /><path
       style="fill:#ffffff;fill-opacity:1"
       class="ColorScheme-Text"
       d="m 18.111243,11.074079 a 2.0200082,2.054324 0 0 1 -2.020008,2.054324 2.0200082,2.054324 0 0 1 -2.020008,-2.054324 2.0200082,2.054324 0 0 1 2.020008,-2.0543236 2.0200082,2.054324 0 0 1 2.020008,2.0543236 z"
       id="path3" /><path
       style="opacity:0.35;fill:#ffffff;fill-opacity:1"
       class="ColorScheme-Text"
       d="m 11.041214,3.8839454 c -3.0811182,0 -5.978618,1.1023503 -8.0800325,3.081486 l 0.7338306,1.027162 H 18.387417 l 0.73383,-1.027162 C 17.019429,4.986193 14.122737,3.8839454 11.041214,3.8839454 Z m -2.9372967,10.2716196 2.9372967,4.108648 2.937297,-4.108648 z"
       id="path4" /></g></svg>
