<svg xmlns="http://www.w3.org/2000/svg" width="48" height="48" viewBox="0 0 48 48" version="1.1">
 <defs>
  <style id="current-color-scheme" type="text/css">
   .ColorScheme-Text { color:#dfdfdf; } .ColorScheme-Highlight { color:#4285f4; } .ColorScheme-NeutralText { color:#ff9800; } .ColorScheme-PositiveText { color:#4caf50; } .ColorScheme-NegativeText { color:#f44336; }
  </style>
 </defs>
 <circle style="opacity:0.2" cx="24" cy="37.21957" r="6.8545904" />
 <circle style="fill:#fb8c00" cx="24" cy="36.240345" r="6.8545904" />
 <path style="opacity:0.2"
   d="m 24.000003,4.9050735 c -1.618704,0 -2.930921,1.3152449 -2.930921,2.9376816 6.24e-4,0.00447 0.0013,0.00893 0.0019,0.013396 -5.777507,1.3328461 -9.800893,6.4962929 -9.800893,12.7165579 v 8.863367 c 0,0 -0.111318,2.331808 -1.7414672,3.434945 l -3.6235794,3.125111 c -0.7976217,0.710632 -0.6411392,2.203262 0.3358338,2.203262 h 4.7322158 13.026951 13.026951 4.732215 c 0.976973,0 1.133456,-1.49263 0.335834,-2.203262 l -3.623579,-3.125111 c -1.630141,-1.103137 -1.741468,-3.434945 -1.741468,-3.434945 v -8.863367 c 0,-6.220265 -4.023386,-11.3837118 -9.80094,-12.7165659 6.84e-4,-0.00445 0.0013,-0.00891 0.0019,-0.013396 0,-1.6224367 -1.312218,-2.9376816 -2.930921,-2.9376816 z" />
 <path style="fill:#ffc107"
   d="m 24.000003,3.9258463 c -1.618704,0 -2.930921,1.3152449 -2.930921,2.9376816 6.24e-4,0.00447 0.0013,0.00893 0.0019,0.013396 C 15.293475,8.20977 11.270089,13.373217 11.270089,19.593481 v 8.863368 c 0,0 -0.111318,2.331808 -1.7414672,3.434945 l -3.6235794,3.125111 c -0.7976217,0.710631 -0.6411392,2.203261 0.3358338,2.203261 h 4.7322158 13.026951 13.026951 4.732215 c 0.976973,0 1.133456,-1.49263 0.335834,-2.203261 l -3.623579,-3.125111 c -1.630141,-1.103135 -1.741468,-3.434943 -1.741468,-3.434943 v -8.86337 c 0,-6.220264 -4.023386,-11.383711 -9.80094,-12.7165649 6.84e-4,-0.00447 0.0013,-0.00891 0.0019,-0.013396 0,-1.6224367 -1.312218,-2.9376816 -2.930921,-2.9376816 z" />
 <path style="opacity:0.2;fill:#ffffff"
   d="m 24.000001,3.9258463 c -1.618704,0 -2.930032,1.3152449 -2.930032,2.9376816 6.27e-4,0.00447 0.0014,0.00893 0.002,0.013396 -5.777552,1.332846 -9.80188,6.4962931 -9.80188,12.7165571 v 0.979228 c 0,-6.220265 4.024328,-11.3837119 9.801835,-12.7165659 -5.87e-4,-0.00447 -0.0013,-0.00893 -0.0019,-0.013396 0,-1.6224367 1.311328,-2.9376816 2.930032,-2.9376816 1.618703,0 2.930032,1.3152449 2.930032,2.9376816 -5.88e-4,0.00447 -0.0013,0.00893 -0.002,0.013396 5.777601,1.3328541 9.80188,6.4963009 9.80188,12.7165659 v -0.979228 c 0,-6.220264 -4.024279,-11.383711 -9.801835,-12.7165649 6.84e-4,-0.00446 0.0013,-0.00892 0.0019,-0.013388 0,-1.6224367 -1.311329,-2.9376816 -2.930032,-2.9376818 z M 11.270047,28.455932 c 0,0 -0.1122,2.331809 -1.7423368,3.434945 L 5.9053353,35.015989 C 5.4238787,35.444937 5.294417,36.154597 5.4788368,36.653133 5.560426,36.408319 5.702226,36.176175 5.9053353,35.995216 l 3.6223749,-3.125112 c 1.6301428,-1.103136 1.7423368,-3.434945 1.7423368,-3.434945 z m 25.459907,0 v 0.979227 c 0,0 0.1122,2.331809 1.742335,3.434945 l 3.622377,3.125112 c 0.20311,0.180961 0.344917,0.413103 0.426499,0.657917 0.184427,-0.498536 0.05495,-1.208196 -0.426499,-1.637144 l -3.622377,-3.125112 c -1.630141,-1.103136 -1.742335,-3.434945 -1.742335,-3.434945 z" />
</svg>

