<svg xmlns="http://www.w3.org/2000/svg" width="48" height="48" viewBox="0 0 48 48" version="1.1">
  <defs>
    <style id="current-color-scheme" type="text/css">
      .ColorScheme-Text { color:#dfdfdf; } .ColorScheme-Highlight { color:#4285f4; } .ColorScheme-NeutralText { color:#ff9800; } .ColorScheme-PositiveText { color:#4caf50; } .ColorScheme-NegativeText { color:#f44336; }
    </style>
  </defs>
  <path style="fill:currentColor" class="ColorScheme-Text"
    d="m 17.904084,36.956525 a 6.1582582,6.1582582 0 0 0 6.095878,5.278181 6.1582582,6.1582582 0 0 0 6.095877,-5.278181 h -6.095877 z" />
  <path style="fill:currentColor" class="ColorScheme-Text"
     d="m 23.999964,5.0439686 c -1.454265,0 -2.633179,1.1816334 -2.633179,2.6392534 5.6e-4,0.004 0.0012,0.008 0.0017,0.01203 -5.190592,1.197447 -8.805257,5.836359 -8.805257,11.42473 v 7.962971 c 0,0 -0.10001,2.094929 -1.564558,3.086002 l -3.2554671,2.807643 c -0.7165943,0.63844 -0.5760083,1.97944 0.3017177,1.97944 H 12.296409 24 35.703592 39.955079 c 0.877726,0 1.018313,-1.341 0.301718,-1.97944 l -3.255473,-2.807643 c -1.464541,-0.991072 -1.564559,-3.086 -1.564559,-3.086 v -7.962973 c 0,-5.588371 -3.614665,-10.227283 -8.805299,-11.424737 6.14e-4,-0.004 0.0012,-0.008 0.0017,-0.01203 0,-1.457619 -1.178915,-2.6392532 -2.63318,-2.6392532 z" />
</svg>
