<svg xmlns="http://www.w3.org/2000/svg" width="48" height="48" viewBox="0 0 48 48" version="1.1">
  <defs>
    <style id="current-color-scheme" type="text/css">
      .ColorScheme-Text { color:#dfdfdf; } .ColorScheme-Highlight { color:#4285f4; } .ColorScheme-NeutralText { color:#ff9800; } .ColorScheme-PositiveText { color:#4caf50; } .ColorScheme-NegativeText { color:#f44336; }
    </style>
  </defs>
  <path style="opacity:0.35;fill:currentColor" class="ColorScheme-Text"
    d="m 17.904084,36.956525 a 6.1582582,6.1582582 0 0 0 6.095878,5.278181 6.1582582,6.1582582 0 0 0 6.095877,-5.278181 h -6.095877 z" />
  <path style="opacity:0.35;fill:currentColor" class="ColorScheme-Text"
    d="m 24,5.0449219 c -1.454265,0 -2.632813,1.1810519 -2.632812,2.6386719 5.6e-4,0.004 0.0015,0.00769 0.002,0.011719 -1.271682,0.2933715 -2.449439,0.7930264 -3.501953,1.4628906 L 35.4375,26.728516 v -7.609375 c 0,-5.588371 -3.616007,-10.2263745 -8.806641,-11.4238285 6.14e-4,-0.004 0.0015,-0.00769 0.002,-0.011719 C 26.632812,6.2259747 25.454265,5.0449219 24,5.0449219 Z M 11.494141,6.2851562 7.9960938,9.7832031 13.246094,15.033203 c -2e-4,5.72e-4 2e-4,0.0014 0,0.002 -0.444539,1.270267 -0.683594,2.645101 -0.683594,4.083985 v 7.96289 c 0,0 -0.0999,2.096818 -1.564453,3.087891 l -3.2539064,2.80664 c -0.7165943,0.638442 -0.5769447,1.978516 0.3007813,1.978516 H 12.296875 24 33.126953 c 0.339536,0.313363 0.527344,0.486328 0.527344,0.486328 l 3.498047,3.498047 3.498047,-3.498047 z" />
</svg>
