<?xml version="1.0" encoding="UTF-8" standalone="no"?>
<svg
   width="48"
   height="48"
   version="1.1"
   id="svg1"
   viewBox="0 0 48 48"
   xmlns="http://www.w3.org/2000/svg"
   xmlns:svg="http://www.w3.org/2000/svg">
  <defs
     id="defs1">
    <style
       id="current-color-scheme"
       type="text/css">
   .ColorScheme-Text { color:#444444; } .ColorScheme-Highlight { color:#4285f4; } .ColorScheme-NeutralText { color:#ff9800; } .ColorScheme-PositiveText { color:#4caf50; } .ColorScheme-NegativeText { color:#f44336; }
  </style>
  </defs>
  <path
     style="fill:#dfdfdf;fill-opacity:1;stroke-width:2.62584"
     class="ColorScheme-Text"
     d="m 23.961537,4.3061914 a 2.6261056,2.6169393 0 0 0 -2.58738,2.6514871 V 22.658881 a 2.6261056,2.6169393 0 1 0 5.251686,0 V 6.9576785 A 2.6261056,2.6169393 0 0 0 23.961537,4.3061914 Z m -8.8135,5.2542488 A 2.6262653,2.6285269 0 0 0 13.74793,10.024579 C 7.0587891,14.523368 4.0744458,22.891573 6.4037752,30.613342 8.7331081,38.335109 15.843578,43.651601 23.902558,43.693835 31.961538,43.736085 39.129816,38.4949 41.539812,30.797971 43.949808,23.101037 41.052763,14.703493 34.411061,10.134843 a 2.6262653,2.6285269 0 1 0 -2.974592,4.328537 c 4.759661,3.274044 6.819782,9.246807 5.092702,14.762674 -1.72708,5.515867 -6.823085,9.241232 -12.598407,9.210967 -5.77532,-0.03025 -10.829123,-3.808079 -12.498397,-9.341747 -1.669272,-5.533667 0.45034,-11.484846 5.243995,-14.708823 A 2.6262653,2.6285269 0 0 0 15.148037,9.5604402 Z"
     id="path1" />
</svg>
