<?xml version="1.0" encoding="UTF-8" standalone="no"?>
<svg
   width="48"
   height="48"
   version="1.1"
   id="svg1"
   viewBox="0 0 48 48"
   xml:space="preserve"
   xmlns="http://www.w3.org/2000/svg"
   xmlns:svg="http://www.w3.org/2000/svg"><defs
     id="defs1"><style
       id="current-color-scheme"
       type="text/css">
   .ColorScheme-Text { color:#444444; } .ColorScheme-Highlight { color:#4285f4; } .ColorScheme-NeutralText { color:#ff9800; } .ColorScheme-PositiveText { color:#4caf50; } .ColorScheme-NegativeText { color:#f44336; }
  </style><style
       id="current-color-scheme-5"
       type="text/css">
   .ColorScheme-Text { color:#444444; } .ColorScheme-Highlight { color:#4285f4; } .ColorScheme-NeutralText { color:#ff9800; } .ColorScheme-PositiveText { color:#4caf50; } .ColorScheme-NegativeText { color:#f44336; }
  </style></defs><path
     style="display:inline;fill:#dfdfdf;fill-opacity:1;stroke-width:2.57988"
     class="ColorScheme-Text"
     d="m 21.596357,5.9477686 c -0.539283,0.014963 -1.077013,0.053403 -1.612428,0.1158885 -4.283316,0.5001267 -8.387567,2.51521 -11.4331352,5.9459649 -6.0911331,6.861508 -6.0557835,17.252209 0.08315,24.07107 6.1389372,6.818862 16.4782072,7.95589 23.9521382,2.630331 2.81171,-1.997422 -0.193467,-6.208794 -3.000629,-4.205003 -5.368145,3.825076 -12.700105,3.023149 -17.10939,-1.87449 -4.4092872,-4.897643 -4.4354188,-12.267147 -0.06045,-17.195421 4.374946,-4.92827 11.702048,-5.7854888 17.096792,-1.997946 2.832768,2.066752 5.877764,-2.258268 2.972916,-4.2226418 C 29.199274,6.9084465 25.371373,5.8434327 21.596383,5.9477557 Z m 10.788162,9.0222444 v 6.44986 H 20.644857 c -1.424834,0 -2.579889,1.155079 -2.579889,2.579941 0,1.424862 1.155055,2.579942 2.579889,2.579942 h 11.739662 v 6.449859 l 11.609495,-9.029801 z"
     id="path1" /></svg>
