<svg xmlns="http://www.w3.org/2000/svg" width="22" height="22" viewBox="0 0 22 22" version="1.1">
 <defs>
  <style id="current-color-scheme" type="text/css">
   .ColorScheme-Text { color:#dfdfdf; } .ColorScheme-Highlight { color:#4285f4; } .ColorScheme-NeutralText { color:#ff9800; } .ColorScheme-PositiveText { color:#4caf50; } .ColorScheme-NegativeText { color:#f44336; }
  </style>
 </defs>
 <path style="opacity:0.35;fill:currentColor" class="ColorScheme-Text"
   d="M 4.984389,2.6777165 4.105104,3.6637606 5.5051307,5.2624925 Q 4.070957,5.9900591 2.9611796,6.9761032 L 11.028407,18.282105 13.72602,14.4911 l 2.313458,2.584776 0.870749,-0.986044 z m 6.044018,1.2062288 q -1.4597839,0 -2.8598108,0.392503 l 1.1695346,1.3211078 q 0.8792852,-0.1435987 1.6902762,-0.153172 3.252501,0 6.044018,1.8955023 l -2.731759,3.8292976 0.981726,1.09135 1.067093,-1.493427 Q 18.276107,8.105746 19.121245,6.9761032 17.362674,5.4826771 15.279708,4.6880978 13.205278,3.8839453 11.028407,3.8839453 Z M 6.5722243,6.4304282 12.75283,13.361457 11.028407,15.764342 4.984389,7.3398864 Q 5.7270862,6.8325045 6.5722243,6.4304282 Z" />
</svg>

