<?xml version="1.0" encoding="UTF-8" standalone="no"?>
<svg
   width="48"
   height="48"
   version="1"
   id="svg5"
   viewBox="0 0 48 48"
   xmlns="http://www.w3.org/2000/svg"
   xmlns:svg="http://www.w3.org/2000/svg">
  <defs
     id="defs5" />
  <g
     id="g5"
     transform="matrix(2.7354733,0,0,2.7354733,2.1163504,2.1165745)">
    <path
       fill="#f3c72f"
       d="M 8,1.2314e-4 C 3.5557,1.2314e-4 1e-4,3.5557231 1e-4,8.0001231 1.1084e-4,12.444023 3.5557,16.000023 8,16.000023 c 0.71113,0 1.3333,-0.62221 1.3333,-1.3333 0,-0.35555 -0.088885,-0.62221 -0.35555,-0.88885 -0.17778,-0.26666 -0.35555,-0.53333 -0.35555,-0.88886 0,-0.71113 0.62227,-1.3333 1.3333,-1.3333 h 1.6 c 2.4886,0 4.4443,-1.9556999 4.4443,-4.4442999 0,-3.9117 -3.556,-7.11169996 -8,-7.11169996 z"
       id="path1" />
    <path
       fill="#fd971a"
       d="m 2.5,8.0001 c -0.8,0 -1.5,-0.6998 -1.5,-1.5 0,-0.8003 0.7,-1.5 1.5,-1.5 0.8,0 1.5,0.6997 1.5,1.5 0,0.8002 -0.7,1.5 -1.5,1.5 z"
       id="path2" />
    <path
       fill="#327cc4"
       d="M 5.5,5 C 4.7,5 4,4.3 4,3.5 4,2.7 4.7,2 5.5,2 6.3,2 7,2.7 7,3.5 7,4.3 6.3,5 5.5,5 Z"
       id="path3" />
    <path
       fill="#4c9511"
       d="M 9.5,5 C 8.7,5 8,4.3 8,3.5 8,2.7 8.7,2 9.5,2 10.3,2 11,2.7 11,3.5 11,4.3 10.3,5 9.5,5 Z"
       id="path4" />
    <path
       fill="#d94d4d"
       d="m 12.5,8.0001 c -0.8,0 -1.5,-0.7 -1.5,-1.5 0,-0.8 0.7,-1.5 1.5,-1.5 0.8,0 1.5,0.7 1.5,1.5 0,0.8 -0.7,1.5 -1.5,1.5 z"
       id="path5" />
  </g>
</svg>
