<svg xmlns="http://www.w3.org/2000/svg" width="48" height="48" viewBox="0 0 48 48" version="1.1">
  <defs
     id="defs8" /><g
     transform="matrix(2.1823638,0,0,2.1823638,-2.1883656,-2.1883656)"
     id="g8"><path
       style="opacity:0.2"
       d="m 3,4.5 c -0.554,0 -1,0.446 -1,1 v 14 c 0,0.554 0.446,1 1,1 h 11 l 8,-8 v -7 c 0,-0.554 -0.446,-1 -1,-1 z"
       id="path1" /><path
       style="fill:#03a9f4"
       d="M 22,12 V 5 C 22,4.446 21.554,4 21,4 H 3 C 2.446,4 2,4.446 2,5 v 14 c 0,0.554 0.446,1 1,1 h 11 l 2,-6 z"
       id="path2" /><path
       style="opacity:0.2;fill:#ffffff"
       d="M 3,4 C 2.446,4 2,4.446 2,5 v 0.5 c 0,-0.554 0.446,-1 1,-1 h 18 c 0.554,0 1,0.446 1,1 V 5 C 22,4.446 21.554,4 21,4 Z"
       id="path3" /><path
       style="fill:#26c6da"
       d="m 2,16 v 3 c 0,0.554 0.446,1 1,1 h 11 l 1,-4 z"
       id="path4" /><path
       style="fill:#4f4f4f"
       d="M 4.1641,14.357 C 4.0545,14.361 3.949,14.372 3.8477,14.393 3.4422,14.476 2,15.43 2,15.43 V 16 H 4.4277 15 V 15.078 C 14.691,15.045 14.421,15.009 14.295,14.998 14.126,14.982 13.647,14.926 13.373,14.889 13.097,14.851 12.855,14.816 12.648,14.797 12.442,14.778 11.532,14.71 10.869,14.67 10.207,14.629 9.5849,14.596 9.3359,14.596 9.0869,14.593 8.2887,14.617 7.8066,14.646 7.3244,14.675 6.909,14.703 6.6797,14.695 6.4504,14.687 5.7167,14.563 5.2246,14.471 4.8555,14.401 4.4929,14.346 4.1641,14.357 Z"
       id="path5" /><path
       style="fill:#cccccc"
       d="m 22,12 h -7 c -0.552,0 -1,0.448 -1,1 v 7 z"
       id="path6" /><path
       style="opacity:0.2;fill:#ffffff"
       d="m 15,12 c -0.552,0 -1,0.448 -1,1 v 0.5 c 0,-0.552 0.448,-1 1,-1 h 6.5 L 22,12 Z"
       id="path7" /><circle
       style="opacity:0.2"
       cx="7"
       cy="10.5"
       r="3"
       id="circle7" /><circle
       style="fill:#fffa6a"
       cx="7"
       cy="10"
       r="3"
       id="circle8" /></g></svg>
